<mxfile host="app.diagrams.net" agent="Mozilla/5.0 (Windows NT 10.0; Win64; x64) AppleWebKit/537.36 (KHTML, like Gecko) Chrome/136.0.0.0 Safari/537.36" version="27.0.5" pages="2">
  <diagram name="第1頁" id="3X83IuZr3GNJcPJG22SZ">
    <mxGraphModel grid="0" page="1" gridSize="10" guides="1" tooltips="1" connect="1" arrows="1" fold="1" pageScale="1" pageWidth="1169" pageHeight="827" background="#ffffff" math="0" shadow="0">
      <root>
        <mxCell id="0" />
        <mxCell id="1" parent="0" />
        <mxCell id="cSlPkWQrHUgZPYMlcahd-1" value="使用者 User" style="swimlane;fontStyle=2;align=center;verticalAlign=top;childLayout=stackLayout;horizontal=1;startSize=30;horizontalStack=0;resizeParent=1;resizeLast=0;collapsible=1;marginBottom=0;rounded=0;shadow=0;strokeWidth=1;fillColor=#E5CCFF;strokeColor=light-dark(#000000, #9577a3);" vertex="1" parent="1">
          <mxGeometry x="213" y="3722.5" width="190" height="294.5" as="geometry">
            <mxRectangle x="230" y="140" width="160" height="26" as="alternateBounds" />
          </mxGeometry>
        </mxCell>
        <mxCell id="cSlPkWQrHUgZPYMlcahd-2" value="- userID: int" style="text;align=left;verticalAlign=top;spacingLeft=4;spacingRight=4;overflow=hidden;rotatable=0;points=[[0,0.5],[1,0.5]];portConstraint=eastwest;" vertex="1" parent="cSlPkWQrHUgZPYMlcahd-1">
          <mxGeometry y="30" width="190" height="26" as="geometry" />
        </mxCell>
        <mxCell id="cSlPkWQrHUgZPYMlcahd-3" value="- username: Varchar(30)" style="text;align=left;verticalAlign=top;spacingLeft=4;spacingRight=4;overflow=hidden;rotatable=0;points=[[0,0.5],[1,0.5]];portConstraint=eastwest;rounded=0;shadow=0;html=0;" vertex="1" parent="cSlPkWQrHUgZPYMlcahd-1">
          <mxGeometry y="56" width="190" height="26" as="geometry" />
        </mxCell>
        <mxCell id="cSlPkWQrHUgZPYMlcahd-4" value="- password: Varchar(50) " style="text;align=left;verticalAlign=top;spacingLeft=4;spacingRight=4;overflow=hidden;rotatable=0;points=[[0,0.5],[1,0.5]];portConstraint=eastwest;rounded=0;shadow=0;html=0;" vertex="1" parent="cSlPkWQrHUgZPYMlcahd-1">
          <mxGeometry y="82" width="190" height="28" as="geometry" />
        </mxCell>
        <mxCell id="cSlPkWQrHUgZPYMlcahd-5" value="- email: Varchar(45) " style="text;align=left;verticalAlign=top;spacingLeft=4;spacingRight=4;overflow=hidden;rotatable=0;points=[[0,0.5],[1,0.5]];portConstraint=eastwest;rounded=0;shadow=0;html=0;" vertex="1" parent="cSlPkWQrHUgZPYMlcahd-1">
          <mxGeometry y="110" width="190" height="30" as="geometry" />
        </mxCell>
        <mxCell id="QsucEulN0NIGUYmZInax-5" value="" style="endArrow=none;html=1;rounded=0;exitX=-0.002;exitY=-0.054;exitDx=0;exitDy=0;exitPerimeter=0;entryX=1.001;entryY=0.908;entryDx=0;entryDy=0;entryPerimeter=0;" edge="1" parent="cSlPkWQrHUgZPYMlcahd-1" source="QsucEulN0NIGUYmZInax-2" target="cSlPkWQrHUgZPYMlcahd-6">
          <mxGeometry width="50" height="50" relative="1" as="geometry">
            <mxPoint x="50" y="166.5" as="sourcePoint" />
            <mxPoint x="100" y="116.5" as="targetPoint" />
          </mxGeometry>
        </mxCell>
        <mxCell id="cSlPkWQrHUgZPYMlcahd-6" value="- createdAt: datetime" style="text;align=left;verticalAlign=top;spacingLeft=4;spacingRight=4;overflow=hidden;rotatable=0;points=[[0,0.5],[1,0.5]];portConstraint=eastwest;rounded=0;shadow=0;html=0;" vertex="1" parent="cSlPkWQrHUgZPYMlcahd-1">
          <mxGeometry y="140" width="190" height="30" as="geometry" />
        </mxCell>
        <mxCell id="QsucEulN0NIGUYmZInax-2" value="+ register()：註冊帳號" style="text;align=left;verticalAlign=top;spacingLeft=4;spacingRight=4;overflow=hidden;rotatable=0;points=[[0,0.5],[1,0.5]];portConstraint=eastwest;rounded=0;shadow=0;html=0;" vertex="1" parent="cSlPkWQrHUgZPYMlcahd-1">
          <mxGeometry y="170" width="190" height="30" as="geometry" />
        </mxCell>
        <mxCell id="QsucEulN0NIGUYmZInax-3" value="+ login()：登入系統" style="text;align=left;verticalAlign=top;spacingLeft=4;spacingRight=4;overflow=hidden;rotatable=0;points=[[0,0.5],[1,0.5]];portConstraint=eastwest;rounded=0;shadow=0;html=0;" vertex="1" parent="cSlPkWQrHUgZPYMlcahd-1">
          <mxGeometry y="200" width="190" height="30" as="geometry" />
        </mxCell>
        <mxCell id="QsucEulN0NIGUYmZInax-7" value="+ viewDreams()：查看夢境歷史" style="text;align=left;verticalAlign=top;spacingLeft=4;spacingRight=4;overflow=hidden;rotatable=0;points=[[0,0.5],[1,0.5]];portConstraint=eastwest;rounded=0;shadow=0;html=0;" vertex="1" parent="cSlPkWQrHUgZPYMlcahd-1">
          <mxGeometry y="230" width="190" height="30" as="geometry" />
        </mxCell>
        <mxCell id="QsucEulN0NIGUYmZInax-8" value="+ postDream()：發表貼文" style="text;align=left;verticalAlign=top;spacingLeft=4;spacingRight=4;overflow=hidden;rotatable=0;points=[[0,0.5],[1,0.5]];portConstraint=eastwest;rounded=0;shadow=0;html=0;" vertex="1" parent="cSlPkWQrHUgZPYMlcahd-1">
          <mxGeometry y="260" width="190" height="30" as="geometry" />
        </mxCell>
        <mxCell id="cSlPkWQrHUgZPYMlcahd-7" style="edgeStyle=orthogonalEdgeStyle;rounded=0;orthogonalLoop=1;jettySize=auto;html=1;entryX=0.5;entryY=0;entryDx=0;entryDy=0;exitX=0.5;exitY=1;exitDx=0;exitDy=0;" edge="1" parent="1" source="cSlPkWQrHUgZPYMlcahd-8" target="cSlPkWQrHUgZPYMlcahd-37">
          <mxGeometry relative="1" as="geometry">
            <mxPoint x="-107" y="3945" as="sourcePoint" />
            <mxPoint x="-95.07142857142844" y="4118" as="targetPoint" />
          </mxGeometry>
        </mxCell>
        <mxCell id="cSlPkWQrHUgZPYMlcahd-8" value="夢境 Dream " style="swimlane;fontStyle=2;align=center;verticalAlign=top;childLayout=stackLayout;horizontal=1;startSize=30;horizontalStack=0;resizeParent=1;resizeLast=0;collapsible=1;marginBottom=0;rounded=0;shadow=0;strokeWidth=1;fillColor=#E5CCFF;" vertex="1" parent="1">
          <mxGeometry x="-209" y="3687" width="248.5" height="304" as="geometry">
            <mxRectangle x="230" y="140" width="160" height="26" as="alternateBounds" />
          </mxGeometry>
        </mxCell>
        <mxCell id="cSlPkWQrHUgZPYMlcahd-9" value="- dreamID: int &#xa;" style="text;align=left;verticalAlign=top;spacingLeft=4;spacingRight=4;overflow=hidden;rotatable=0;points=[[0,0.5],[1,0.5]];portConstraint=eastwest;" vertex="1" parent="cSlPkWQrHUgZPYMlcahd-8">
          <mxGeometry y="30" width="248.5" height="30" as="geometry" />
        </mxCell>
        <mxCell id="cSlPkWQrHUgZPYMlcahd-10" value="- userID: int" style="text;align=left;verticalAlign=top;spacingLeft=4;spacingRight=4;overflow=hidden;rotatable=0;points=[[0,0.5],[1,0.5]];portConstraint=eastwest;" vertex="1" parent="cSlPkWQrHUgZPYMlcahd-8">
          <mxGeometry y="60" width="248.5" height="30" as="geometry" />
        </mxCell>
        <mxCell id="cSlPkWQrHUgZPYMlcahd-11" value="- content: longtext" style="text;align=left;verticalAlign=top;spacingLeft=4;spacingRight=4;overflow=hidden;rotatable=0;points=[[0,0.5],[1,0.5]];portConstraint=eastwest;rounded=0;shadow=0;html=0;" vertex="1" parent="cSlPkWQrHUgZPYMlcahd-8">
          <mxGeometry y="90" width="248.5" height="30" as="geometry" />
        </mxCell>
        <mxCell id="cSlPkWQrHUgZPYMlcahd-12" value="- createdAt: datetime" style="text;align=left;verticalAlign=top;spacingLeft=4;spacingRight=4;overflow=hidden;rotatable=0;points=[[0,0.5],[1,0.5]];portConstraint=eastwest;rounded=0;shadow=0;html=0;" vertex="1" parent="cSlPkWQrHUgZPYMlcahd-8">
          <mxGeometry y="120" width="248.5" height="30" as="geometry" />
        </mxCell>
        <mxCell id="cSlPkWQrHUgZPYMlcahd-13" value="- keywords: list&lt;string&gt; " style="text;align=left;verticalAlign=top;spacingLeft=4;spacingRight=4;overflow=hidden;rotatable=0;points=[[0,0.5],[1,0.5]];portConstraint=eastwest;rounded=0;shadow=0;html=0;" vertex="1" parent="cSlPkWQrHUgZPYMlcahd-8">
          <mxGeometry y="150" width="248.5" height="30" as="geometry" />
        </mxCell>
        <mxCell id="cSlPkWQrHUgZPYMlcahd-14" value="- analysis: DreamAnalysisResult" style="text;align=left;verticalAlign=top;spacingLeft=4;spacingRight=4;overflow=hidden;rotatable=0;points=[[0,0.5],[1,0.5]];portConstraint=eastwest;rounded=0;shadow=0;html=0;" vertex="1" parent="cSlPkWQrHUgZPYMlcahd-8">
          <mxGeometry y="180" width="248.5" height="30" as="geometry" />
        </mxCell>
        <mxCell id="Z6lctaZufjilbH1HJxiw-12" value="+ createDream()：新增夢境" style="text;align=left;verticalAlign=top;spacingLeft=4;spacingRight=4;overflow=hidden;rotatable=0;points=[[0,0.5],[1,0.5]];portConstraint=eastwest;rounded=0;shadow=0;html=0;" vertex="1" parent="cSlPkWQrHUgZPYMlcahd-8">
          <mxGeometry y="210" width="248.5" height="30" as="geometry" />
        </mxCell>
        <mxCell id="Z6lctaZufjilbH1HJxiw-14" value="+ analyzeDream()：提交給 AI 分析" style="text;align=left;verticalAlign=top;spacingLeft=4;spacingRight=4;overflow=hidden;rotatable=0;points=[[0,0.5],[1,0.5]];portConstraint=eastwest;rounded=0;shadow=0;html=0;" vertex="1" parent="cSlPkWQrHUgZPYMlcahd-8">
          <mxGeometry y="240" width="248.5" height="30" as="geometry" />
        </mxCell>
        <mxCell id="Z6lctaZufjilbH1HJxiw-15" value="+ viewAnalysis()：檢視分析結果" style="text;align=left;verticalAlign=top;spacingLeft=4;spacingRight=4;overflow=hidden;rotatable=0;points=[[0,0.5],[1,0.5]];portConstraint=eastwest;rounded=0;shadow=0;html=0;" vertex="1" parent="cSlPkWQrHUgZPYMlcahd-8">
          <mxGeometry y="270" width="248.5" height="30" as="geometry" />
        </mxCell>
        <mxCell id="Z6lctaZufjilbH1HJxiw-16" value="" style="endArrow=none;html=1;rounded=0;exitX=0.002;exitY=-0.091;exitDx=0;exitDy=0;exitPerimeter=0;entryX=1.004;entryY=0.917;entryDx=0;entryDy=0;entryPerimeter=0;" edge="1" parent="cSlPkWQrHUgZPYMlcahd-8" source="Z6lctaZufjilbH1HJxiw-12" target="cSlPkWQrHUgZPYMlcahd-14">
          <mxGeometry width="50" height="50" relative="1" as="geometry">
            <mxPoint x="54.5" y="247" as="sourcePoint" />
            <mxPoint x="104.5" y="197" as="targetPoint" />
          </mxGeometry>
        </mxCell>
        <mxCell id="cSlPkWQrHUgZPYMlcahd-15" value="新聞 News " style="swimlane;fontStyle=2;align=center;verticalAlign=top;childLayout=stackLayout;horizontal=1;startSize=30;horizontalStack=0;resizeParent=1;resizeLast=0;collapsible=1;marginBottom=0;rounded=0;shadow=0;strokeWidth=1;fillColor=#E5CCFF;strokeColor=light-dark(#000000, #9577a3);" vertex="1" parent="1">
          <mxGeometry x="135" y="4457" width="346" height="318" as="geometry">
            <mxRectangle x="230" y="140" width="160" height="26" as="alternateBounds" />
          </mxGeometry>
        </mxCell>
        <mxCell id="cSlPkWQrHUgZPYMlcahd-16" value="- newsID: int " style="text;align=left;verticalAlign=top;spacingLeft=4;spacingRight=4;overflow=hidden;rotatable=0;points=[[0,0.5],[1,0.5]];portConstraint=eastwest;" vertex="1" parent="cSlPkWQrHUgZPYMlcahd-15">
          <mxGeometry y="30" width="346" height="26" as="geometry" />
        </mxCell>
        <mxCell id="cSlPkWQrHUgZPYMlcahd-17" value="- keywords: list&lt;string&gt; " style="text;align=left;verticalAlign=top;spacingLeft=4;spacingRight=4;overflow=hidden;rotatable=0;points=[[0,0.5],[1,0.5]];portConstraint=eastwest;" vertex="1" parent="cSlPkWQrHUgZPYMlcahd-15">
          <mxGeometry y="56" width="346" height="26" as="geometry" />
        </mxCell>
        <mxCell id="cSlPkWQrHUgZPYMlcahd-18" value="- title: Varchar(45) " style="text;align=left;verticalAlign=top;spacingLeft=4;spacingRight=4;overflow=hidden;rotatable=0;points=[[0,0.5],[1,0.5]];portConstraint=eastwest;rounded=0;shadow=0;html=0;" vertex="1" parent="cSlPkWQrHUgZPYMlcahd-15">
          <mxGeometry y="82" width="346" height="26" as="geometry" />
        </mxCell>
        <mxCell id="cSlPkWQrHUgZPYMlcahd-19" value="- content: longtext&#xa;  " style="text;align=left;verticalAlign=top;spacingLeft=4;spacingRight=4;overflow=hidden;rotatable=0;points=[[0,0.5],[1,0.5]];portConstraint=eastwest;rounded=0;shadow=0;html=0;" vertex="1" parent="cSlPkWQrHUgZPYMlcahd-15">
          <mxGeometry y="108" width="346" height="28" as="geometry" />
        </mxCell>
        <mxCell id="cSlPkWQrHUgZPYMlcahd-20" value="- source: longtext" style="text;align=left;verticalAlign=top;spacingLeft=4;spacingRight=4;overflow=hidden;rotatable=0;points=[[0,0.5],[1,0.5]];portConstraint=eastwest;rounded=0;shadow=0;html=0;" vertex="1" parent="cSlPkWQrHUgZPYMlcahd-15">
          <mxGeometry y="136" width="346" height="30" as="geometry" />
        </mxCell>
        <mxCell id="QsucEulN0NIGUYmZInax-17" value="" style="endArrow=none;html=1;rounded=0;exitX=-0.004;exitY=1.06;exitDx=0;exitDy=0;exitPerimeter=0;entryX=1.005;entryY=1.039;entryDx=0;entryDy=0;entryPerimeter=0;" edge="1" parent="cSlPkWQrHUgZPYMlcahd-15" source="cSlPkWQrHUgZPYMlcahd-21" target="cSlPkWQrHUgZPYMlcahd-21">
          <mxGeometry width="50" height="50" relative="1" as="geometry">
            <mxPoint x="119" y="186" as="sourcePoint" />
            <mxPoint x="169" y="136" as="targetPoint" />
          </mxGeometry>
        </mxCell>
        <mxCell id="cSlPkWQrHUgZPYMlcahd-21" value="- similarity: float" style="text;align=left;verticalAlign=top;spacingLeft=4;spacingRight=4;overflow=hidden;rotatable=0;points=[[0,0.5],[1,0.5]];portConstraint=eastwest;rounded=0;shadow=0;html=0;" vertex="1" parent="cSlPkWQrHUgZPYMlcahd-15">
          <mxGeometry y="166" width="346" height="30" as="geometry" />
        </mxCell>
        <mxCell id="QsucEulN0NIGUYmZInax-15" value="+ selectDream()：選取要比對夢境" style="text;align=left;verticalAlign=top;spacingLeft=4;spacingRight=4;overflow=hidden;rotatable=0;points=[[0,0.5],[1,0.5]];portConstraint=eastwest;rounded=0;shadow=0;html=0;" vertex="1" parent="cSlPkWQrHUgZPYMlcahd-15">
          <mxGeometry y="196" width="346" height="30" as="geometry" />
        </mxCell>
        <mxCell id="CGk7cgDfkwHFYizvUtf6-2" value="+ analyzeDream()：提交給 AI 分析" style="text;align=left;verticalAlign=top;spacingLeft=4;spacingRight=4;overflow=hidden;rotatable=0;points=[[0,0.5],[1,0.5]];portConstraint=eastwest;rounded=0;shadow=0;html=0;" vertex="1" parent="cSlPkWQrHUgZPYMlcahd-15">
          <mxGeometry y="226" width="346" height="30" as="geometry" />
        </mxCell>
        <mxCell id="CGk7cgDfkwHFYizvUtf6-1" value="+ viewAnalysis()：檢視分析結果" style="text;align=left;verticalAlign=top;spacingLeft=4;spacingRight=4;overflow=hidden;rotatable=0;points=[[0,0.5],[1,0.5]];portConstraint=eastwest;rounded=0;shadow=0;html=0;" vertex="1" parent="cSlPkWQrHUgZPYMlcahd-15">
          <mxGeometry y="256" width="346" height="30" as="geometry" />
        </mxCell>
        <mxCell id="CGk7cgDfkwHFYizvUtf6-3" value="+ compareWithDream(dreamText)：與夢境比對語意相似度" style="text;align=left;verticalAlign=top;spacingLeft=4;spacingRight=4;overflow=hidden;rotatable=0;points=[[0,0.5],[1,0.5]];portConstraint=eastwest;rounded=0;shadow=0;html=0;" vertex="1" parent="cSlPkWQrHUgZPYMlcahd-15">
          <mxGeometry y="286" width="346" height="30" as="geometry" />
        </mxCell>
        <mxCell id="cSlPkWQrHUgZPYMlcahd-22" style="edgeStyle=orthogonalEdgeStyle;rounded=0;orthogonalLoop=1;jettySize=auto;html=1;exitX=0.5;exitY=1;exitDx=0;exitDy=0;entryX=0.5;entryY=0;entryDx=0;entryDy=0;" edge="1" parent="1" source="cSlPkWQrHUgZPYMlcahd-23" target="cSlPkWQrHUgZPYMlcahd-31">
          <mxGeometry relative="1" as="geometry" />
        </mxCell>
        <mxCell id="cSlPkWQrHUgZPYMlcahd-23" value="貼文 Post  " style="swimlane;fontStyle=2;align=center;verticalAlign=top;childLayout=stackLayout;horizontal=1;startSize=30;horizontalStack=0;resizeParent=1;resizeLast=0;collapsible=1;marginBottom=0;rounded=0;shadow=0;strokeWidth=1;fillColor=#E5CCFF;strokeColor=light-dark(#000000, #9577a3);" vertex="1" parent="1">
          <mxGeometry x="592" y="3694" width="214" height="334" as="geometry">
            <mxRectangle x="230" y="140" width="160" height="26" as="alternateBounds" />
          </mxGeometry>
        </mxCell>
        <mxCell id="cSlPkWQrHUgZPYMlcahd-24" value="- userID: int" style="text;align=left;verticalAlign=top;spacingLeft=4;spacingRight=4;overflow=hidden;rotatable=0;points=[[0,0.5],[1,0.5]];portConstraint=eastwest;rounded=0;shadow=0;html=0;" vertex="1" parent="cSlPkWQrHUgZPYMlcahd-23">
          <mxGeometry y="30" width="214" height="28" as="geometry" />
        </mxCell>
        <mxCell id="cSlPkWQrHUgZPYMlcahd-25" value="- postID: int   " style="text;align=left;verticalAlign=top;spacingLeft=4;spacingRight=4;overflow=hidden;rotatable=0;points=[[0,0.5],[1,0.5]];portConstraint=eastwest;" vertex="1" parent="cSlPkWQrHUgZPYMlcahd-23">
          <mxGeometry y="58" width="214" height="26" as="geometry" />
        </mxCell>
        <mxCell id="cSlPkWQrHUgZPYMlcahd-26" value="- title: Varchar(45)       " style="text;align=left;verticalAlign=top;spacingLeft=4;spacingRight=4;overflow=hidden;rotatable=0;points=[[0,0.5],[1,0.5]];portConstraint=eastwest;" vertex="1" parent="cSlPkWQrHUgZPYMlcahd-23">
          <mxGeometry y="84" width="214" height="26" as="geometry" />
        </mxCell>
        <mxCell id="cSlPkWQrHUgZPYMlcahd-27" value="- content: longtext" style="text;align=left;verticalAlign=top;spacingLeft=4;spacingRight=4;overflow=hidden;rotatable=0;points=[[0,0.5],[1,0.5]];portConstraint=eastwest;rounded=0;shadow=0;html=0;" vertex="1" parent="cSlPkWQrHUgZPYMlcahd-23">
          <mxGeometry y="110" width="214" height="28" as="geometry" />
        </mxCell>
        <mxCell id="cSlPkWQrHUgZPYMlcahd-28" value="- tags: List[str] " style="text;align=left;verticalAlign=top;spacingLeft=4;spacingRight=4;overflow=hidden;rotatable=0;points=[[0,0.5],[1,0.5]];portConstraint=eastwest;rounded=0;shadow=0;html=0;" vertex="1" parent="cSlPkWQrHUgZPYMlcahd-23">
          <mxGeometry y="138" width="214" height="28" as="geometry" />
        </mxCell>
        <mxCell id="cSlPkWQrHUgZPYMlcahd-29" value="- createdAt: datetime" style="text;align=left;verticalAlign=top;spacingLeft=4;spacingRight=4;overflow=hidden;rotatable=0;points=[[0,0.5],[1,0.5]];portConstraint=eastwest;rounded=0;shadow=0;html=0;" vertex="1" parent="cSlPkWQrHUgZPYMlcahd-23">
          <mxGeometry y="166" width="214" height="28" as="geometry" />
        </mxCell>
        <mxCell id="cSlPkWQrHUgZPYMlcahd-30" value="- updated_at: datetim   " style="text;align=left;verticalAlign=top;spacingLeft=4;spacingRight=4;overflow=hidden;rotatable=0;points=[[0,0.5],[1,0.5]];portConstraint=eastwest;rounded=0;shadow=0;html=0;" vertex="1" parent="cSlPkWQrHUgZPYMlcahd-23">
          <mxGeometry y="194" width="214" height="28" as="geometry" />
        </mxCell>
        <mxCell id="QsucEulN0NIGUYmZInax-18" value="+ createPost()：發佈夢境貼文" style="text;align=left;verticalAlign=top;spacingLeft=4;spacingRight=4;overflow=hidden;rotatable=0;points=[[0,0.5],[1,0.5]];portConstraint=eastwest;rounded=0;shadow=0;html=0;" vertex="1" parent="cSlPkWQrHUgZPYMlcahd-23">
          <mxGeometry y="222" width="214" height="28" as="geometry" />
        </mxCell>
        <mxCell id="QsucEulN0NIGUYmZInax-19" value="+ editPost()：編輯貼文" style="text;align=left;verticalAlign=top;spacingLeft=4;spacingRight=4;overflow=hidden;rotatable=0;points=[[0,0.5],[1,0.5]];portConstraint=eastwest;rounded=0;shadow=0;html=0;" vertex="1" parent="cSlPkWQrHUgZPYMlcahd-23">
          <mxGeometry y="250" width="214" height="28" as="geometry" />
        </mxCell>
        <mxCell id="fTBpUCubJN8EXZ_6Bwy7-1" value="+ Deletepost()：刪除貼文" style="text;align=left;verticalAlign=top;spacingLeft=4;spacingRight=4;overflow=hidden;rotatable=0;points=[[0,0.5],[1,0.5]];portConstraint=eastwest;rounded=0;shadow=0;html=0;fontFamily=Helvetica;" vertex="1" parent="cSlPkWQrHUgZPYMlcahd-23">
          <mxGeometry y="278" width="214" height="28" as="geometry" />
        </mxCell>
        <mxCell id="QsucEulN0NIGUYmZInax-20" value="+ viewComments()：查看留言" style="text;align=left;verticalAlign=top;spacingLeft=4;spacingRight=4;overflow=hidden;rotatable=0;points=[[0,0.5],[1,0.5]];portConstraint=eastwest;rounded=0;shadow=0;html=0;" vertex="1" parent="cSlPkWQrHUgZPYMlcahd-23">
          <mxGeometry y="306" width="214" height="28" as="geometry" />
        </mxCell>
        <mxCell id="QsucEulN0NIGUYmZInax-21" value="" style="endArrow=none;html=1;rounded=0;exitX=0.003;exitY=-0.1;exitDx=0;exitDy=0;exitPerimeter=0;entryX=1.001;entryY=0.89;entryDx=0;entryDy=0;entryPerimeter=0;" edge="1" parent="cSlPkWQrHUgZPYMlcahd-23" source="QsucEulN0NIGUYmZInax-18" target="cSlPkWQrHUgZPYMlcahd-30">
          <mxGeometry width="50" height="50" relative="1" as="geometry">
            <mxPoint x="82" y="239.2199999999998" as="sourcePoint" />
            <mxPoint x="132" y="189.2199999999998" as="targetPoint" />
          </mxGeometry>
        </mxCell>
        <mxCell id="cSlPkWQrHUgZPYMlcahd-31" value="留言 Comment   " style="swimlane;fontStyle=2;align=center;verticalAlign=top;childLayout=stackLayout;horizontal=1;startSize=30;horizontalStack=0;resizeParent=1;resizeLast=0;collapsible=1;marginBottom=0;rounded=0;shadow=0;strokeWidth=1;fillColor=#E5CCFF;strokeColor=light-dark(#000000, #9577a3);" vertex="1" parent="1">
          <mxGeometry x="565" y="4251" width="270" height="250" as="geometry">
            <mxRectangle x="230" y="140" width="160" height="26" as="alternateBounds" />
          </mxGeometry>
        </mxCell>
        <mxCell id="cSlPkWQrHUgZPYMlcahd-32" value="- userID: int " style="text;align=left;verticalAlign=top;spacingLeft=4;spacingRight=4;overflow=hidden;rotatable=0;points=[[0,0.5],[1,0.5]];portConstraint=eastwest;rounded=0;shadow=0;html=0;" vertex="1" parent="cSlPkWQrHUgZPYMlcahd-31">
          <mxGeometry y="30" width="270" height="28" as="geometry" />
        </mxCell>
        <mxCell id="cSlPkWQrHUgZPYMlcahd-33" value="- commentID: int" style="text;align=left;verticalAlign=top;spacingLeft=4;spacingRight=4;overflow=hidden;rotatable=0;points=[[0,0.5],[1,0.5]];portConstraint=eastwest;" vertex="1" parent="cSlPkWQrHUgZPYMlcahd-31">
          <mxGeometry y="58" width="270" height="26" as="geometry" />
        </mxCell>
        <mxCell id="cSlPkWQrHUgZPYMlcahd-34" value="- postID: int" style="text;align=left;verticalAlign=top;spacingLeft=4;spacingRight=4;overflow=hidden;rotatable=0;points=[[0,0.5],[1,0.5]];portConstraint=eastwest;rounded=0;shadow=0;html=0;" vertex="1" parent="cSlPkWQrHUgZPYMlcahd-31">
          <mxGeometry y="84" width="270" height="26" as="geometry" />
        </mxCell>
        <mxCell id="cSlPkWQrHUgZPYMlcahd-35" value="- content: longtext" style="text;align=left;verticalAlign=top;spacingLeft=4;spacingRight=4;overflow=hidden;rotatable=0;points=[[0,0.5],[1,0.5]];portConstraint=eastwest;rounded=0;shadow=0;html=0;" vertex="1" parent="cSlPkWQrHUgZPYMlcahd-31">
          <mxGeometry y="110" width="270" height="28" as="geometry" />
        </mxCell>
        <mxCell id="QsucEulN0NIGUYmZInax-26" value="" style="endArrow=none;html=1;rounded=0;exitX=0;exitY=-0.077;exitDx=0;exitDy=0;exitPerimeter=0;entryX=0.991;entryY=0.911;entryDx=0;entryDy=0;entryPerimeter=0;" edge="1" parent="cSlPkWQrHUgZPYMlcahd-31" source="QsucEulN0NIGUYmZInax-22" target="cSlPkWQrHUgZPYMlcahd-36">
          <mxGeometry width="50" height="50" relative="1" as="geometry">
            <mxPoint x="75" y="160" as="sourcePoint" />
            <mxPoint x="125" y="110" as="targetPoint" />
          </mxGeometry>
        </mxCell>
        <mxCell id="cSlPkWQrHUgZPYMlcahd-36" value="- createdAt: datetime" style="text;align=left;verticalAlign=top;spacingLeft=4;spacingRight=4;overflow=hidden;rotatable=0;points=[[0,0.5],[1,0.5]];portConstraint=eastwest;rounded=0;shadow=0;html=0;" vertex="1" parent="cSlPkWQrHUgZPYMlcahd-31">
          <mxGeometry y="138" width="270" height="28" as="geometry" />
        </mxCell>
        <mxCell id="QsucEulN0NIGUYmZInax-22" value="+ AddnewComment(): 新增評論" style="text;align=left;verticalAlign=top;spacingLeft=4;spacingRight=4;overflow=hidden;rotatable=0;points=[[0,0.5],[1,0.5]];portConstraint=eastwest;rounded=0;shadow=0;html=0;fontFamily=Helvetica;" vertex="1" parent="cSlPkWQrHUgZPYMlcahd-31">
          <mxGeometry y="166" width="270" height="28" as="geometry" />
        </mxCell>
        <mxCell id="fTBpUCubJN8EXZ_6Bwy7-3" value="+ editComment(newContent: string): 編輯評論" style="text;align=left;verticalAlign=top;spacingLeft=4;spacingRight=4;overflow=hidden;rotatable=0;points=[[0,0.5],[1,0.5]];portConstraint=eastwest;rounded=0;shadow=0;html=0;fontFamily=Helvetica;" vertex="1" parent="cSlPkWQrHUgZPYMlcahd-31">
          <mxGeometry y="194" width="270" height="28" as="geometry" />
        </mxCell>
        <mxCell id="fTBpUCubJN8EXZ_6Bwy7-2" value="+ DeleteComment()：刪除評論" style="text;align=left;verticalAlign=top;spacingLeft=4;spacingRight=4;overflow=hidden;rotatable=0;points=[[0,0.5],[1,0.5]];portConstraint=eastwest;rounded=0;shadow=0;html=0;fontFamily=Helvetica;" vertex="1" parent="cSlPkWQrHUgZPYMlcahd-31">
          <mxGeometry y="222" width="270" height="28" as="geometry" />
        </mxCell>
        <mxCell id="cSlPkWQrHUgZPYMlcahd-37" value="心理診斷建議 PsyDiagnosis" style="swimlane;fontStyle=2;align=center;verticalAlign=top;childLayout=stackLayout;horizontal=1;startSize=30;horizontalStack=0;resizeParent=1;resizeLast=0;collapsible=1;marginBottom=0;rounded=0;shadow=0;strokeWidth=1;fillColor=#E5CCFF;" vertex="1" parent="1">
          <mxGeometry x="-221" y="4277" width="271" height="318" as="geometry">
            <mxRectangle x="230" y="140" width="160" height="26" as="alternateBounds" />
          </mxGeometry>
        </mxCell>
        <mxCell id="cSlPkWQrHUgZPYMlcahd-38" value="- diagnosisID: int" style="text;align=left;verticalAlign=top;spacingLeft=4;spacingRight=4;overflow=hidden;rotatable=0;points=[[0,0.5],[1,0.5]];portConstraint=eastwest;" vertex="1" parent="cSlPkWQrHUgZPYMlcahd-37">
          <mxGeometry y="30" width="271" height="26" as="geometry" />
        </mxCell>
        <mxCell id="cSlPkWQrHUgZPYMlcahd-39" value="- dreamID: int " style="text;align=left;verticalAlign=top;spacingLeft=4;spacingRight=4;overflow=hidden;rotatable=0;points=[[0,0.5],[1,0.5]];portConstraint=eastwest;" vertex="1" parent="cSlPkWQrHUgZPYMlcahd-37">
          <mxGeometry y="56" width="271" height="26" as="geometry" />
        </mxCell>
        <mxCell id="cSlPkWQrHUgZPYMlcahd-40" value="- content: longtext" style="text;align=left;verticalAlign=top;spacingLeft=4;spacingRight=4;overflow=hidden;rotatable=0;points=[[0,0.5],[1,0.5]];portConstraint=eastwest;" vertex="1" parent="cSlPkWQrHUgZPYMlcahd-37">
          <mxGeometry y="82" width="271" height="26" as="geometry" />
        </mxCell>
        <mxCell id="cSlPkWQrHUgZPYMlcahd-41" value="- mainEmotion: Varchar(45) " style="text;align=left;verticalAlign=top;spacingLeft=4;spacingRight=4;overflow=hidden;rotatable=0;points=[[0,0.5],[1,0.5]];portConstraint=eastwest;" vertex="1" parent="cSlPkWQrHUgZPYMlcahd-37">
          <mxGeometry y="108" width="271" height="26" as="geometry" />
        </mxCell>
        <mxCell id="cSlPkWQrHUgZPYMlcahd-42" value="- emotionScore: float" style="text;align=left;verticalAlign=top;spacingLeft=4;spacingRight=4;overflow=hidden;rotatable=0;points=[[0,0.5],[1,0.5]];portConstraint=eastwest;" vertex="1" parent="cSlPkWQrHUgZPYMlcahd-37">
          <mxGeometry y="134" width="271" height="26" as="geometry" />
        </mxCell>
        <mxCell id="cSlPkWQrHUgZPYMlcahd-43" value="- suggestion: longtext" style="text;align=left;verticalAlign=top;spacingLeft=4;spacingRight=4;overflow=hidden;rotatable=0;points=[[0,0.5],[1,0.5]];portConstraint=eastwest;rounded=0;shadow=0;html=0;" vertex="1" parent="cSlPkWQrHUgZPYMlcahd-37">
          <mxGeometry y="160" width="271" height="26" as="geometry" />
        </mxCell>
        <mxCell id="cSlPkWQrHUgZPYMlcahd-44" value="- alert: AlertWindo" style="text;align=left;verticalAlign=top;spacingLeft=4;spacingRight=4;overflow=hidden;rotatable=0;points=[[0,0.5],[1,0.5]];portConstraint=eastwest;rounded=0;shadow=0;html=0;" vertex="1" parent="cSlPkWQrHUgZPYMlcahd-37">
          <mxGeometry y="186" width="271" height="33" as="geometry" />
        </mxCell>
        <mxCell id="Z6lctaZufjilbH1HJxiw-8" value="+ generateDiagnosis()：根據分析結果產生診斷" style="text;align=left;verticalAlign=top;spacingLeft=4;spacingRight=4;overflow=hidden;rotatable=0;points=[[0,0.5],[1,0.5]];portConstraint=eastwest;rounded=0;shadow=0;html=0;" vertex="1" parent="cSlPkWQrHUgZPYMlcahd-37">
          <mxGeometry y="219" width="271" height="33" as="geometry" />
        </mxCell>
        <mxCell id="QsucEulN0NIGUYmZInax-11" value="+ giveSuggestion()：產出心理建議文字" style="text;align=left;verticalAlign=top;spacingLeft=4;spacingRight=4;overflow=hidden;rotatable=0;points=[[0,0.5],[1,0.5]];portConstraint=eastwest;rounded=0;shadow=0;html=0;" vertex="1" parent="cSlPkWQrHUgZPYMlcahd-37">
          <mxGeometry y="252" width="271" height="33" as="geometry" />
        </mxCell>
        <mxCell id="QsucEulN0NIGUYmZInax-12" value="+ triggerAlert()：觸發心理預警" style="text;align=left;verticalAlign=top;spacingLeft=4;spacingRight=4;overflow=hidden;rotatable=0;points=[[0,0.5],[1,0.5]];portConstraint=eastwest;rounded=0;shadow=0;html=0;" vertex="1" parent="cSlPkWQrHUgZPYMlcahd-37">
          <mxGeometry y="285" width="271" height="33" as="geometry" />
        </mxCell>
        <mxCell id="Z6lctaZufjilbH1HJxiw-10" value="" style="endArrow=none;html=1;rounded=0;exitX=-0.001;exitY=0.988;exitDx=0;exitDy=0;exitPerimeter=0;entryX=1.005;entryY=-0.02;entryDx=0;entryDy=0;entryPerimeter=0;" edge="1" parent="cSlPkWQrHUgZPYMlcahd-37" source="cSlPkWQrHUgZPYMlcahd-44" target="Z6lctaZufjilbH1HJxiw-8">
          <mxGeometry width="50" height="50" relative="1" as="geometry">
            <mxPoint x="55.5" y="176" as="sourcePoint" />
            <mxPoint x="210.5" y="220" as="targetPoint" />
          </mxGeometry>
        </mxCell>
        <mxCell id="cSlPkWQrHUgZPYMlcahd-45" value="警示窗 AlertWindow " style="swimlane;fontStyle=2;align=center;verticalAlign=top;childLayout=stackLayout;horizontal=1;startSize=30;horizontalStack=0;resizeParent=1;resizeLast=0;collapsible=1;marginBottom=0;rounded=0;shadow=0;strokeWidth=1;fillColor=#E5CCFF;" vertex="1" parent="1">
          <mxGeometry x="-619" y="4253" width="244" height="238" as="geometry">
            <mxRectangle x="230" y="140" width="160" height="26" as="alternateBounds" />
          </mxGeometry>
        </mxCell>
        <mxCell id="cSlPkWQrHUgZPYMlcahd-46" value="- userID: int" style="text;align=left;verticalAlign=top;spacingLeft=4;spacingRight=4;overflow=hidden;rotatable=0;points=[[0,0.5],[1,0.5]];portConstraint=eastwest;" vertex="1" parent="cSlPkWQrHUgZPYMlcahd-45">
          <mxGeometry y="30" width="244" height="26" as="geometry" />
        </mxCell>
        <mxCell id="cSlPkWQrHUgZPYMlcahd-47" value="- alertID: int" style="text;align=left;verticalAlign=top;spacingLeft=4;spacingRight=4;overflow=hidden;rotatable=0;points=[[0,0.5],[1,0.5]];portConstraint=eastwest;" vertex="1" parent="cSlPkWQrHUgZPYMlcahd-45">
          <mxGeometry y="56" width="244" height="26" as="geometry" />
        </mxCell>
        <mxCell id="cSlPkWQrHUgZPYMlcahd-48" value="- triggered_by: Varchar(45)" style="text;align=left;verticalAlign=top;spacingLeft=4;spacingRight=4;overflow=hidden;rotatable=0;points=[[0,0.5],[1,0.5]];portConstraint=eastwest;" vertex="1" parent="cSlPkWQrHUgZPYMlcahd-45">
          <mxGeometry y="82" width="244" height="26" as="geometry" />
        </mxCell>
        <mxCell id="cSlPkWQrHUgZPYMlcahd-49" value="- message: longtext" style="text;align=left;verticalAlign=top;spacingLeft=4;spacingRight=4;overflow=hidden;rotatable=0;points=[[0,0.5],[1,0.5]];portConstraint=eastwest;" vertex="1" parent="cSlPkWQrHUgZPYMlcahd-45">
          <mxGeometry y="108" width="244" height="26" as="geometry" />
        </mxCell>
        <mxCell id="cSlPkWQrHUgZPYMlcahd-50" value="- created_at: datetime  " style="text;align=left;verticalAlign=top;spacingLeft=4;spacingRight=4;overflow=hidden;rotatable=0;points=[[0,0.5],[1,0.5]];portConstraint=eastwest;" vertex="1" parent="cSlPkWQrHUgZPYMlcahd-45">
          <mxGeometry y="134" width="244" height="26" as="geometry" />
        </mxCell>
        <mxCell id="cSlPkWQrHUgZPYMlcahd-51" value="- isRead: bool" style="text;align=left;verticalAlign=top;spacingLeft=4;spacingRight=4;overflow=hidden;rotatable=0;points=[[0,0.5],[1,0.5]];portConstraint=eastwest;" vertex="1" parent="cSlPkWQrHUgZPYMlcahd-45">
          <mxGeometry y="160" width="244" height="26" as="geometry" />
        </mxCell>
        <mxCell id="Z6lctaZufjilbH1HJxiw-1" value="+ showAlert()：顯示警示視窗" style="text;align=left;verticalAlign=top;spacingLeft=4;spacingRight=4;overflow=hidden;rotatable=0;points=[[0,0.5],[1,0.5]];portConstraint=eastwest;" vertex="1" parent="cSlPkWQrHUgZPYMlcahd-45">
          <mxGeometry y="186" width="244" height="26" as="geometry" />
        </mxCell>
        <mxCell id="Z6lctaZufjilbH1HJxiw-2" value="+ markAsRead()：使用者點擊後標記為已讀" style="text;align=left;verticalAlign=top;spacingLeft=4;spacingRight=4;overflow=hidden;rotatable=0;points=[[0,0.5],[1,0.5]];portConstraint=eastwest;" vertex="1" parent="cSlPkWQrHUgZPYMlcahd-45">
          <mxGeometry y="212" width="244" height="26" as="geometry" />
        </mxCell>
        <mxCell id="Z6lctaZufjilbH1HJxiw-4" value="" style="endArrow=none;html=1;rounded=0;entryX=1;entryY=1.089;entryDx=0;entryDy=0;entryPerimeter=0;exitX=0.003;exitY=1.073;exitDx=0;exitDy=0;exitPerimeter=0;" edge="1" parent="cSlPkWQrHUgZPYMlcahd-45" source="cSlPkWQrHUgZPYMlcahd-51" target="cSlPkWQrHUgZPYMlcahd-51">
          <mxGeometry width="50" height="50" relative="1" as="geometry">
            <mxPoint x="3" y="187" as="sourcePoint" />
            <mxPoint x="14" y="40" as="targetPoint" />
          </mxGeometry>
        </mxCell>
        <mxCell id="cSlPkWQrHUgZPYMlcahd-52" style="edgeStyle=orthogonalEdgeStyle;rounded=0;orthogonalLoop=1;jettySize=auto;html=1;exitX=0;exitY=0.5;exitDx=0;exitDy=0;entryX=1;entryY=0.5;entryDx=0;entryDy=0;startArrow=classic;startFill=1;endArrow=none;" edge="1" parent="1" source="cSlPkWQrHUgZPYMlcahd-27" target="cSlPkWQrHUgZPYMlcahd-4">
          <mxGeometry relative="1" as="geometry" />
        </mxCell>
        <mxCell id="cSlPkWQrHUgZPYMlcahd-53" style="edgeStyle=orthogonalEdgeStyle;rounded=0;orthogonalLoop=1;jettySize=auto;html=1;exitX=0.5;exitY=0;exitDx=0;exitDy=0;entryX=0.5;entryY=1;entryDx=0;entryDy=0;startArrow=classic;startFill=1;endArrow=none;" edge="1" parent="1" source="cSlPkWQrHUgZPYMlcahd-15" target="cSlPkWQrHUgZPYMlcahd-1">
          <mxGeometry relative="1" as="geometry" />
        </mxCell>
        <mxCell id="cSlPkWQrHUgZPYMlcahd-54" style="edgeStyle=orthogonalEdgeStyle;rounded=0;orthogonalLoop=1;jettySize=auto;html=1;entryX=0;entryY=0.5;entryDx=0;entryDy=0;startArrow=classic;startFill=1;endArrow=none;exitX=1;exitY=0.5;exitDx=0;exitDy=0;" edge="1" parent="1" source="cSlPkWQrHUgZPYMlcahd-11" target="cSlPkWQrHUgZPYMlcahd-3">
          <mxGeometry relative="1" as="geometry">
            <mxPoint x="40.5" y="3798" as="sourcePoint" />
          </mxGeometry>
        </mxCell>
        <mxCell id="cSlPkWQrHUgZPYMlcahd-55" value="1" style="text;html=1;align=center;verticalAlign=middle;resizable=0;points=[];autosize=1;strokeColor=none;fillColor=none;" vertex="1" parent="1">
          <mxGeometry x="183.00428571428574" y="3755.997142857143" width="30" height="30" as="geometry" />
        </mxCell>
        <mxCell id="cSlPkWQrHUgZPYMlcahd-56" value="1" style="text;html=1;align=center;verticalAlign=middle;resizable=0;points=[];autosize=1;strokeColor=none;fillColor=none;" vertex="1" parent="1">
          <mxGeometry x="405.00428571428574" y="3776.997142857143" width="30" height="30" as="geometry" />
        </mxCell>
        <mxCell id="cSlPkWQrHUgZPYMlcahd-57" value="0..*" style="text;html=1;align=center;verticalAlign=middle;resizable=0;points=[];autosize=1;strokeColor=none;fillColor=none;" vertex="1" parent="1">
          <mxGeometry x="551.0042857142857" y="3779.217142857143" width="36" height="26" as="geometry" />
        </mxCell>
        <mxCell id="cSlPkWQrHUgZPYMlcahd-58" value="0..*" style="text;html=1;align=center;verticalAlign=middle;resizable=0;points=[];autosize=1;strokeColor=none;fillColor=none;" vertex="1" parent="1">
          <mxGeometry x="655.0042857142857" y="4019.997142857143" width="36" height="26" as="geometry" />
        </mxCell>
        <mxCell id="cSlPkWQrHUgZPYMlcahd-59" value="0..*" style="text;html=1;align=center;verticalAlign=middle;resizable=0;points=[];autosize=1;strokeColor=none;fillColor=none;" vertex="1" parent="1">
          <mxGeometry x="616.0042857142857" y="4204.9971428571425" width="36" height="26" as="geometry" />
        </mxCell>
        <mxCell id="cSlPkWQrHUgZPYMlcahd-60" value="1" style="text;html=1;align=center;verticalAlign=middle;resizable=0;points=[];autosize=1;strokeColor=none;fillColor=none;" vertex="1" parent="1">
          <mxGeometry x="-117.99571428571426" y="4027.997142857143" width="25" height="26" as="geometry" />
        </mxCell>
        <mxCell id="cSlPkWQrHUgZPYMlcahd-61" value="1..*" style="text;html=1;align=center;verticalAlign=middle;resizable=0;points=[];autosize=1;strokeColor=none;fillColor=none;" vertex="1" parent="1">
          <mxGeometry x="-123.49571428571426" y="4230.9971428571425" width="36" height="26" as="geometry" />
        </mxCell>
        <mxCell id="cSlPkWQrHUgZPYMlcahd-62" value="1" style="text;html=1;align=center;verticalAlign=middle;resizable=0;points=[];autosize=1;strokeColor=none;fillColor=none;" vertex="1" parent="1">
          <mxGeometry x="266.00428571428574" y="4033.9971428571425" width="30" height="30" as="geometry" />
        </mxCell>
        <mxCell id="cSlPkWQrHUgZPYMlcahd-63" value="0..*" style="text;html=1;align=center;verticalAlign=middle;resizable=0;points=[];autosize=1;strokeColor=none;fillColor=none;" vertex="1" parent="1">
          <mxGeometry x="248.00428571428574" y="4399.9971428571425" width="36" height="26" as="geometry" />
        </mxCell>
        <mxCell id="cSlPkWQrHUgZPYMlcahd-64" value="1" style="text;html=1;align=center;verticalAlign=middle;resizable=0;points=[];autosize=1;strokeColor=none;fillColor=none;" vertex="1" parent="1">
          <mxGeometry x="-260.99571428571426" y="4336.9971428571425" width="25" height="26" as="geometry" />
        </mxCell>
        <mxCell id="cSlPkWQrHUgZPYMlcahd-65" value="0..1" style="text;html=1;align=center;verticalAlign=middle;resizable=0;points=[];autosize=1;strokeColor=none;fillColor=none;" vertex="1" parent="1">
          <mxGeometry x="-360.99571428571426" y="4336.9971428571425" width="38" height="26" as="geometry" />
        </mxCell>
        <mxCell id="cSlPkWQrHUgZPYMlcahd-66" value="0..*" style="text;html=1;align=center;verticalAlign=middle;resizable=0;points=[];autosize=1;strokeColor=none;fillColor=none;" vertex="1" parent="1">
          <mxGeometry x="38.50428571428574" y="3757.997142857143" width="36" height="26" as="geometry" />
        </mxCell>
        <mxCell id="cSlPkWQrHUgZPYMlcahd-67" style="edgeStyle=orthogonalEdgeStyle;rounded=0;orthogonalLoop=1;jettySize=auto;html=1;exitX=0;exitY=0.5;exitDx=0;exitDy=0;entryX=1;entryY=0.5;entryDx=0;entryDy=0;" edge="1" parent="1" source="cSlPkWQrHUgZPYMlcahd-40" target="cSlPkWQrHUgZPYMlcahd-45">
          <mxGeometry relative="1" as="geometry" />
        </mxCell>
        <mxCell id="cSlPkWQrHUgZPYMlcahd-68" value="夢境解析結果 DreamAnalysisResult " style="swimlane;fontStyle=2;align=center;verticalAlign=top;childLayout=stackLayout;horizontal=1;startSize=30;horizontalStack=0;resizeParent=1;resizeLast=0;collapsible=1;marginBottom=0;rounded=0;shadow=0;strokeWidth=1;fillColor=#E5CCFF;" vertex="1" parent="1">
          <mxGeometry x="-661.9999999999999" y="3695" width="225.75" height="364" as="geometry">
            <mxRectangle x="230" y="140" width="160" height="26" as="alternateBounds" />
          </mxGeometry>
        </mxCell>
        <mxCell id="cSlPkWQrHUgZPYMlcahd-69" value="- dreamid: int   &#xa;" style="text;align=left;verticalAlign=top;spacingLeft=4;spacingRight=4;overflow=hidden;rotatable=0;points=[[0,0.5],[1,0.5]];portConstraint=eastwest;fillColor=none;" vertex="1" parent="cSlPkWQrHUgZPYMlcahd-68">
          <mxGeometry y="30" width="225.75" height="26" as="geometry" />
        </mxCell>
        <mxCell id="cSlPkWQrHUgZPYMlcahd-70" value="- analysisID: int &#xa;" style="text;align=left;verticalAlign=top;spacingLeft=4;spacingRight=4;overflow=hidden;rotatable=0;points=[[0,0.5],[1,0.5]];portConstraint=eastwest;" vertex="1" parent="cSlPkWQrHUgZPYMlcahd-68">
          <mxGeometry y="56" width="225.75" height="26" as="geometry" />
        </mxCell>
        <mxCell id="cSlPkWQrHUgZPYMlcahd-71" value="- createdAt: datetime" style="text;align=left;verticalAlign=top;spacingLeft=4;spacingRight=4;overflow=hidden;rotatable=0;points=[[0,0.5],[1,0.5]];portConstraint=eastwest;" vertex="1" parent="cSlPkWQrHUgZPYMlcahd-68">
          <mxGeometry y="82" width="225.75" height="26" as="geometry" />
        </mxCell>
        <mxCell id="cSlPkWQrHUgZPYMlcahd-72" value="- content: longtext&#xa;" style="text;align=left;verticalAlign=top;spacingLeft=4;spacingRight=4;overflow=hidden;rotatable=0;points=[[0,0.5],[1,0.5]];portConstraint=eastwest;" vertex="1" parent="cSlPkWQrHUgZPYMlcahd-68">
          <mxGeometry y="108" width="225.75" height="26" as="geometry" />
        </mxCell>
        <mxCell id="cSlPkWQrHUgZPYMlcahd-73" value="- keywords: list&lt;string&gt; " style="text;align=left;verticalAlign=top;spacingLeft=4;spacingRight=4;overflow=hidden;rotatable=0;points=[[0,0.5],[1,0.5]];portConstraint=eastwest;" vertex="1" parent="cSlPkWQrHUgZPYMlcahd-68">
          <mxGeometry y="134" width="225.75" height="26" as="geometry" />
        </mxCell>
        <mxCell id="cSlPkWQrHUgZPYMlcahd-74" value="- happy: float " style="text;align=left;verticalAlign=top;spacingLeft=4;spacingRight=4;overflow=hidden;rotatable=0;points=[[0,0.5],[1,0.5]];portConstraint=eastwest;rounded=0;shadow=0;html=0;" vertex="1" parent="cSlPkWQrHUgZPYMlcahd-68">
          <mxGeometry y="160" width="225.75" height="26" as="geometry" />
        </mxCell>
        <mxCell id="cSlPkWQrHUgZPYMlcahd-75" value="- anxiety: float " style="text;align=left;verticalAlign=top;spacingLeft=4;spacingRight=4;overflow=hidden;rotatable=0;points=[[0,0.5],[1,0.5]];portConstraint=eastwest;rounded=0;shadow=0;html=0;" vertex="1" parent="cSlPkWQrHUgZPYMlcahd-68">
          <mxGeometry y="186" width="225.75" height="28" as="geometry" />
        </mxCell>
        <mxCell id="cSlPkWQrHUgZPYMlcahd-76" value="- fear: float " style="text;align=left;verticalAlign=top;spacingLeft=4;spacingRight=4;overflow=hidden;rotatable=0;points=[[0,0.5],[1,0.5]];portConstraint=eastwest;rounded=0;shadow=0;html=0;" vertex="1" parent="cSlPkWQrHUgZPYMlcahd-68">
          <mxGeometry y="214" width="225.75" height="30" as="geometry" />
        </mxCell>
        <mxCell id="cSlPkWQrHUgZPYMlcahd-77" value="- excited: float " style="text;align=left;verticalAlign=top;spacingLeft=4;spacingRight=4;overflow=hidden;rotatable=0;points=[[0,0.5],[1,0.5]];portConstraint=eastwest;rounded=0;shadow=0;html=0;" vertex="1" parent="cSlPkWQrHUgZPYMlcahd-68">
          <mxGeometry y="244" width="225.75" height="30" as="geometry" />
        </mxCell>
        <mxCell id="cSlPkWQrHUgZPYMlcahd-78" value="+ calculateEmotion()：計算情緒指數" style="text;align=left;verticalAlign=top;spacingLeft=4;spacingRight=4;overflow=hidden;rotatable=0;points=[[0,0.5],[1,0.5]];portConstraint=eastwest;rounded=0;shadow=0;html=0;fontStyle=0" vertex="1" parent="cSlPkWQrHUgZPYMlcahd-68">
          <mxGeometry y="274" width="225.75" height="30" as="geometry" />
        </mxCell>
        <mxCell id="db_yt2a1Ztoqu2KFHRG2-6" value="+ extractKeywords()：自動擷取關鍵詞" style="text;align=left;verticalAlign=top;spacingLeft=4;spacingRight=4;overflow=hidden;rotatable=0;points=[[0,0.5],[1,0.5]];portConstraint=eastwest;rounded=0;shadow=0;html=0;" vertex="1" parent="cSlPkWQrHUgZPYMlcahd-68">
          <mxGeometry y="304" width="225.75" height="30" as="geometry" />
        </mxCell>
        <mxCell id="db_yt2a1Ztoqu2KFHRG2-10" value="+ generateResult()：生成完整分析報告" style="text;align=left;verticalAlign=top;spacingLeft=4;spacingRight=4;overflow=hidden;rotatable=0;points=[[0,0.5],[1,0.5]];portConstraint=eastwest;rounded=0;shadow=0;html=0;" vertex="1" parent="cSlPkWQrHUgZPYMlcahd-68">
          <mxGeometry y="334" width="225.75" height="30" as="geometry" />
        </mxCell>
        <mxCell id="db_yt2a1Ztoqu2KFHRG2-9" value="" style="endArrow=none;html=1;rounded=0;exitX=1.004;exitY=-0.147;exitDx=0;exitDy=0;exitPerimeter=0;entryX=0.007;entryY=-0.147;entryDx=0;entryDy=0;entryPerimeter=0;" edge="1" parent="cSlPkWQrHUgZPYMlcahd-68" source="cSlPkWQrHUgZPYMlcahd-78" target="cSlPkWQrHUgZPYMlcahd-78">
          <mxGeometry width="50" height="50" relative="1" as="geometry">
            <mxPoint x="-28.000000000000114" y="319" as="sourcePoint" />
            <mxPoint x="21.999999999999886" y="269" as="targetPoint" />
          </mxGeometry>
        </mxCell>
        <mxCell id="cSlPkWQrHUgZPYMlcahd-79" style="edgeStyle=orthogonalEdgeStyle;rounded=0;orthogonalLoop=1;jettySize=auto;html=1;entryX=1;entryY=0.5;entryDx=0;entryDy=0;exitX=0.005;exitY=0.152;exitDx=0;exitDy=0;exitPerimeter=0;" edge="1" parent="1" source="cSlPkWQrHUgZPYMlcahd-13" target="cSlPkWQrHUgZPYMlcahd-73">
          <mxGeometry relative="1" as="geometry">
            <mxPoint x="-166" y="3837" as="sourcePoint" />
          </mxGeometry>
        </mxCell>
        <mxCell id="cSlPkWQrHUgZPYMlcahd-80" value="1..*" style="text;html=1;align=center;verticalAlign=middle;resizable=0;points=[];autosize=1;strokeColor=none;fillColor=none;" vertex="1" parent="1">
          <mxGeometry x="-429.99571428571426" y="3806.997142857143" width="40" height="30" as="geometry" />
        </mxCell>
        <mxCell id="cSlPkWQrHUgZPYMlcahd-81" value="1" style="text;html=1;align=center;verticalAlign=middle;resizable=0;points=[];autosize=1;strokeColor=none;fillColor=none;" vertex="1" parent="1">
          <mxGeometry x="-246.99571428571426" y="3807.997142857143" width="25" height="26" as="geometry" />
        </mxCell>
      </root>
    </mxGraphModel>
  </diagram>
  <diagram id="l7Zgprot_WTODx5qHqm6" name="第2頁">
    <mxGraphModel grid="0" page="1" gridSize="10" guides="1" tooltips="1" connect="1" arrows="1" fold="1" pageScale="1" pageWidth="1169" pageHeight="827" math="0" shadow="0">
      <root>
        <mxCell id="0" />
        <mxCell id="1" parent="0" />
        <mxCell id="UCx2YUdVqbYVu_U4UwC4-6" value="&lt;p style=&quot;margin:0px;margin-top:4px;text-align:center;&quot;&gt;&lt;span style=&quot;font-style: italic; text-wrap-mode: nowrap; background-color: transparent; color: light-dark(rgb(0, 0, 0), rgb(255, 255, 255));&quot;&gt;新聞 News&amp;nbsp;&lt;/span&gt;&lt;span style=&quot;font-style: italic; text-wrap-mode: nowrap;&quot;&gt;&amp;nbsp;&lt;/span&gt;&lt;/p&gt;&lt;hr size=&quot;1&quot; style=&quot;border-style:solid;&quot;&gt;&lt;p style=&quot;margin:0px;margin-left:4px;&quot;&gt;&lt;span style=&quot;background-color: transparent; color: light-dark(rgb(0, 0, 0), rgb(255, 255, 255));&quot;&gt;+ newsID: int&lt;/span&gt;&lt;/p&gt;&lt;p style=&quot;margin:0px;margin-left:4px;&quot;&gt;+ keywords: List&amp;lt;string&amp;gt;&lt;/p&gt;&lt;p style=&quot;margin:0px;margin-left:4px;&quot;&gt;+ title: string&lt;/p&gt;&lt;p style=&quot;margin:0px;margin-left:4px;&quot;&gt;+ content: longtext&lt;/p&gt;&lt;p style=&quot;margin:0px;margin-left:4px;&quot;&gt;+ source: longtext&lt;/p&gt;&lt;p style=&quot;margin:0px;margin-left:4px;&quot;&gt;+ similarity: float&lt;/p&gt;&lt;hr size=&quot;1&quot; style=&quot;border-style:solid;&quot;&gt;&lt;p style=&quot;margin:0px;margin-left:4px;&quot;&gt;&lt;span style=&quot;background-color: transparent; color: light-dark(rgb(0, 0, 0), rgb(255, 255, 255));&quot;&gt;+ matchWithDream(dream: Dream): float&lt;/span&gt;&lt;/p&gt;&lt;p style=&quot;margin:0px;margin-left:4px;&quot;&gt;+ recommendToUser(user: User): bool&lt;/p&gt;" style="verticalAlign=top;align=left;overflow=fill;html=1;whiteSpace=wrap;spacingTop=0;spacing=4;" vertex="1" parent="1">
          <mxGeometry x="1375.5" y="752" width="286" height="186" as="geometry" />
        </mxCell>
        <mxCell id="1UGSnFCFj25yQnn6HDzc-1" style="edgeStyle=orthogonalEdgeStyle;rounded=0;orthogonalLoop=1;jettySize=auto;html=1;entryX=0.5;entryY=0;entryDx=0;entryDy=0;exitX=0.5;exitY=1;exitDx=0;exitDy=0;spacingTop=0;spacing=4;" edge="1" parent="1" source="UCx2YUdVqbYVu_U4UwC4-3" target="UCx2YUdVqbYVu_U4UwC4-4">
          <mxGeometry relative="1" as="geometry">
            <mxPoint x="904.5" y="526" as="sourcePoint" />
            <mxPoint x="905.5" y="662" as="targetPoint" />
          </mxGeometry>
        </mxCell>
        <mxCell id="1UGSnFCFj25yQnn6HDzc-2" value="1" style="text;html=1;align=center;verticalAlign=middle;resizable=0;points=[];autosize=1;strokeColor=none;fillColor=none;spacingTop=0;spacing=4;" vertex="1" parent="1">
          <mxGeometry x="850.5042857142857" y="534.997142857143" width="29" height="28" as="geometry" />
        </mxCell>
        <mxCell id="1UGSnFCFj25yQnn6HDzc-3" value="1..*" style="text;html=1;align=center;verticalAlign=middle;resizable=0;points=[];autosize=1;strokeColor=none;fillColor=none;spacingTop=0;spacing=4;" vertex="1" parent="1">
          <mxGeometry x="845.0042857142857" y="683.997142857143" width="40" height="28" as="geometry" />
        </mxCell>
        <mxCell id="XmOutAA_tGyYWHlW2Zdp-1" style="edgeStyle=orthogonalEdgeStyle;rounded=0;orthogonalLoop=1;jettySize=auto;html=1;entryX=1;entryY=0.5;entryDx=0;entryDy=0;exitX=0;exitY=0.5;exitDx=0;exitDy=0;spacingTop=0;spacing=4;" edge="1" parent="1" source="UCx2YUdVqbYVu_U4UwC4-3" target="UCx2YUdVqbYVu_U4UwC4-1">
          <mxGeometry relative="1" as="geometry">
            <mxPoint x="706" y="412" as="sourcePoint" />
            <mxPoint x="601" y="412" as="targetPoint" />
          </mxGeometry>
        </mxCell>
        <mxCell id="XmOutAA_tGyYWHlW2Zdp-2" value="1..*" style="text;html=1;align=center;verticalAlign=middle;resizable=0;points=[];autosize=1;strokeColor=none;fillColor=none;spacingTop=0;spacing=4;" vertex="1" parent="1">
          <mxGeometry x="510.00428571428574" y="382.997142857143" width="40" height="28" as="geometry" />
        </mxCell>
        <mxCell id="XmOutAA_tGyYWHlW2Zdp-3" value="1" style="text;html=1;align=center;verticalAlign=middle;resizable=0;points=[];autosize=1;strokeColor=none;fillColor=none;spacingTop=0;spacing=4;" vertex="1" parent="1">
          <mxGeometry x="690.0042857142857" y="380.997142857143" width="29" height="28" as="geometry" />
        </mxCell>
        <mxCell id="qT34frbc_lmhb2eaU_V9-1" value="1" style="text;html=1;align=center;verticalAlign=middle;resizable=0;points=[];autosize=1;strokeColor=none;fillColor=none;spacingTop=0;spacing=4;" vertex="1" parent="1">
          <mxGeometry x="680.0042857142857" y="792.9971428571425" width="29" height="28" as="geometry" />
        </mxCell>
        <mxCell id="qT34frbc_lmhb2eaU_V9-2" value="0..1" style="text;html=1;align=center;verticalAlign=middle;resizable=0;points=[];autosize=1;strokeColor=none;fillColor=none;spacingTop=0;spacing=4;" vertex="1" parent="1">
          <mxGeometry x="533.0042857142857" y="792.9971428571425" width="42" height="28" as="geometry" />
        </mxCell>
        <mxCell id="qT34frbc_lmhb2eaU_V9-3" style="edgeStyle=orthogonalEdgeStyle;rounded=0;orthogonalLoop=1;jettySize=auto;html=1;exitX=0;exitY=0.5;exitDx=0;exitDy=0;entryX=1;entryY=0.5;entryDx=0;entryDy=0;spacingTop=0;spacing=4;" edge="1" parent="1" source="UCx2YUdVqbYVu_U4UwC4-4" target="UCx2YUdVqbYVu_U4UwC4-2">
          <mxGeometry relative="1" as="geometry">
            <mxPoint x="692" y="830" as="sourcePoint" />
            <mxPoint x="574" y="830" as="targetPoint" />
          </mxGeometry>
        </mxCell>
        <mxCell id="HEfI22nC9euFK_MMZt8y-1" style="edgeStyle=orthogonalEdgeStyle;rounded=0;orthogonalLoop=1;jettySize=auto;html=1;entryX=0;entryY=0.5;entryDx=0;entryDy=0;startArrow=classic;startFill=1;endArrow=none;exitX=1;exitY=0.5;exitDx=0;exitDy=0;spacingTop=0;spacing=4;" edge="1" parent="1" source="UCx2YUdVqbYVu_U4UwC4-3" target="UCx2YUdVqbYVu_U4UwC4-5">
          <mxGeometry relative="1" as="geometry">
            <mxPoint x="1103.5" y="255" as="sourcePoint" />
            <mxPoint x="1200.5" y="255" as="targetPoint" />
          </mxGeometry>
        </mxCell>
        <mxCell id="HEfI22nC9euFK_MMZt8y-2" value="1" style="text;html=1;align=center;verticalAlign=middle;resizable=0;points=[];autosize=1;strokeColor=none;fillColor=none;spacingTop=0;spacing=4;" vertex="1" parent="1">
          <mxGeometry x="1291.0042857142857" y="375.997142857143" width="29" height="28" as="geometry" />
        </mxCell>
        <mxCell id="HEfI22nC9euFK_MMZt8y-3" value="0..*" style="text;html=1;align=center;verticalAlign=middle;resizable=0;points=[];autosize=1;strokeColor=none;fillColor=none;spacingTop=0;spacing=4;" vertex="1" parent="1">
          <mxGeometry x="1064.0042857142857" y="373.997142857143" width="40" height="28" as="geometry" />
        </mxCell>
        <mxCell id="iPDtB99lkscXpktbCHTM-1" style="edgeStyle=orthogonalEdgeStyle;rounded=0;orthogonalLoop=1;jettySize=auto;html=1;exitX=0.5;exitY=0;exitDx=0;exitDy=0;entryX=0.5;entryY=1;entryDx=0;entryDy=0;startArrow=classic;startFill=1;endArrow=none;spacingTop=0;spacing=4;" edge="1" parent="1" source="UCx2YUdVqbYVu_U4UwC4-6" target="UCx2YUdVqbYVu_U4UwC4-5">
          <mxGeometry relative="1" as="geometry">
            <mxPoint x="1462" y="689" as="sourcePoint" />
            <mxPoint x="1462" y="554" as="targetPoint" />
          </mxGeometry>
        </mxCell>
        <mxCell id="iPDtB99lkscXpktbCHTM-2" value="1" style="text;html=1;align=center;verticalAlign=middle;resizable=0;points=[];autosize=1;strokeColor=none;fillColor=none;spacingTop=0;spacing=4;" vertex="1" parent="1">
          <mxGeometry x="1471.0042857142857" y="534.997142857143" width="29" height="28" as="geometry" />
        </mxCell>
        <mxCell id="iPDtB99lkscXpktbCHTM-3" value="0..*" style="text;html=1;align=center;verticalAlign=middle;resizable=0;points=[];autosize=1;strokeColor=none;fillColor=none;spacingTop=0;spacing=4;" vertex="1" parent="1">
          <mxGeometry x="1468.0042857142857" y="706.997142857143" width="40" height="28" as="geometry" />
        </mxCell>
        <mxCell id="fBv2tudsppK94nUvC_ZA-1" style="edgeStyle=orthogonalEdgeStyle;rounded=0;orthogonalLoop=1;jettySize=auto;html=1;exitX=0;exitY=0.5;exitDx=0;exitDy=0;entryX=1;entryY=0.5;entryDx=0;entryDy=0;startArrow=classic;startFill=1;endArrow=none;spacingTop=0;spacing=4;" edge="1" parent="1" source="UCx2YUdVqbYVu_U4UwC4-7" target="UCx2YUdVqbYVu_U4UwC4-5">
          <mxGeometry relative="1" as="geometry">
            <mxPoint x="1811" y="238" as="sourcePoint" />
            <mxPoint x="1712" y="239" as="targetPoint" />
          </mxGeometry>
        </mxCell>
        <mxCell id="fBv2tudsppK94nUvC_ZA-2" value="1" style="text;html=1;align=center;verticalAlign=middle;resizable=0;points=[];autosize=1;strokeColor=none;fillColor=none;spacingTop=0;spacing=4;" vertex="1" parent="1">
          <mxGeometry x="1719.0042857142857" y="375.997142857143" width="29" height="28" as="geometry" />
        </mxCell>
        <mxCell id="fBv2tudsppK94nUvC_ZA-3" value="0..*" style="text;html=1;align=center;verticalAlign=middle;resizable=0;points=[];autosize=1;strokeColor=none;fillColor=none;spacingTop=0;spacing=4;" vertex="1" parent="1">
          <mxGeometry x="1887.0042857142857" y="373.997142857143" width="40" height="28" as="geometry" />
        </mxCell>
        <mxCell id="auzx_6EY9t2ipc2UIA8--1" style="edgeStyle=orthogonalEdgeStyle;rounded=0;orthogonalLoop=1;jettySize=auto;html=1;exitX=0.5;exitY=1;exitDx=0;exitDy=0;entryX=0.5;entryY=0;entryDx=0;entryDy=0;spacingTop=0;spacing=4;" edge="1" parent="1" source="UCx2YUdVqbYVu_U4UwC4-7" target="UCx2YUdVqbYVu_U4UwC4-8">
          <mxGeometry relative="1" as="geometry">
            <mxPoint x="2113" y="551" as="sourcePoint" />
            <mxPoint x="2113" y="656" as="targetPoint" />
          </mxGeometry>
        </mxCell>
        <mxCell id="auzx_6EY9t2ipc2UIA8--2" value="0..*" style="text;html=1;align=center;verticalAlign=middle;resizable=0;points=[];autosize=1;strokeColor=none;fillColor=none;spacingTop=0;spacing=4;" vertex="1" parent="1">
          <mxGeometry x="2112.0042857142857" y="544.997142857143" width="40" height="28" as="geometry" />
        </mxCell>
        <mxCell id="auzx_6EY9t2ipc2UIA8--3" value="0..*" style="text;html=1;align=center;verticalAlign=middle;resizable=0;points=[];autosize=1;strokeColor=none;fillColor=none;spacingTop=0;spacing=4;" vertex="1" parent="1">
          <mxGeometry x="2121.0042857142857" y="727.997142857143" width="40" height="28" as="geometry" />
        </mxCell>
        <mxCell id="h0dk6aMBMe3RH_vuJK1O-13" value="" style="group;spacingTop=0;spacing=4;" connectable="0" vertex="1" parent="1">
          <mxGeometry x="202" y="283" width="286" height="250" as="geometry" />
        </mxCell>
        <mxCell id="UCx2YUdVqbYVu_U4UwC4-1" value="&lt;p style=&quot;margin:0px;margin-top:4px;text-align:center;&quot;&gt;&lt;span style=&quot;font-style: italic; text-wrap-mode: nowrap; background-color: light-dark(#ffffff, var(--ge-dark-color, #121212));&quot;&gt;&lt;font style=&quot;color: rgb(51, 51, 51);&quot;&gt;夢境解析結果 DreamAnalysisResult&amp;nbsp;&lt;/font&gt;&lt;/span&gt;&lt;/p&gt;&lt;hr size=&quot;1&quot; style=&quot;border-style:solid;&quot;&gt;&lt;p style=&quot;margin:0px;margin-left:4px;&quot;&gt;&lt;span style=&quot;background-color: light-dark(#ffffff, var(--ge-dark-color, #121212));&quot;&gt;+ dreamid: int&lt;/span&gt;&lt;/p&gt;&lt;p style=&quot;margin:0px;margin-left:4px;&quot;&gt;&lt;span style=&quot;background-color: light-dark(#ffffff, var(--ge-dark-color, #121212));&quot;&gt;+ analysisID: int&lt;/span&gt;&lt;/p&gt;&lt;p style=&quot;margin:0px;margin-left:4px;&quot;&gt;&lt;span style=&quot;background-color: light-dark(#ffffff, var(--ge-dark-color, #121212));&quot;&gt;+ createdAt: datetime&lt;/span&gt;&lt;/p&gt;&lt;p style=&quot;margin:0px;margin-left:4px;&quot;&gt;&lt;span style=&quot;background-color: light-dark(#ffffff, var(--ge-dark-color, #121212));&quot;&gt;+ content: longtext&lt;/span&gt;&lt;/p&gt;&lt;p style=&quot;margin:0px;margin-left:4px;&quot;&gt;&lt;span style=&quot;background-color: light-dark(#ffffff, var(--ge-dark-color, #121212));&quot;&gt;+ keywords: List&amp;lt;string&amp;gt;&lt;/span&gt;&lt;/p&gt;&lt;p style=&quot;margin:0px;margin-left:4px;&quot;&gt;&lt;span style=&quot;background-color: light-dark(#ffffff, var(--ge-dark-color, #121212));&quot;&gt;+ happy: float&lt;/span&gt;&lt;/p&gt;&lt;p style=&quot;margin:0px;margin-left:4px;&quot;&gt;&lt;span style=&quot;background-color: light-dark(#ffffff, var(--ge-dark-color, #121212));&quot;&gt;+ anxiety: float&lt;/span&gt;&lt;/p&gt;&lt;p style=&quot;margin:0px;margin-left:4px;&quot;&gt;&lt;span style=&quot;background-color: light-dark(#ffffff, var(--ge-dark-color, #121212));&quot;&gt;+ fear: float&lt;/span&gt;&lt;/p&gt;&lt;p style=&quot;margin:0px;margin-left:4px;&quot;&gt;&lt;span style=&quot;background-color: light-dark(#ffffff, var(--ge-dark-color, #121212));&quot;&gt;+ excited: float&lt;/span&gt;&lt;/p&gt;&lt;p style=&quot;margin:0px;margin-left:4px;&quot;&gt;&lt;span style=&quot;background-color: light-dark(#ffffff, var(--ge-dark-color, #121212));&quot;&gt;+ sadness: float&lt;/span&gt;&lt;/p&gt;&lt;hr size=&quot;1&quot; style=&quot;border-style:solid;&quot;&gt;&lt;p style=&quot;margin:0px;margin-left:4px;&quot;&gt;&lt;span style=&quot;background-color: light-dark(#ffffff, var(--ge-dark-color, #121212));&quot;&gt;+ calculateEmotionScores(): void&lt;/span&gt;&lt;/p&gt;&lt;p style=&quot;margin:0px;margin-left:4px;&quot;&gt;&lt;span style=&quot;background-color: light-dark(#ffffff, var(--ge-dark-color, #121212));&quot;&gt;+ extractKeywords(): List&amp;lt;string&amp;gt;&lt;/span&gt;&lt;/p&gt;" style="verticalAlign=top;align=left;overflow=fill;html=1;whiteSpace=wrap;fillStyle=auto;spacingTop=0;spacing=4;" vertex="1" parent="h0dk6aMBMe3RH_vuJK1O-13">
          <mxGeometry y="2" width="286" height="248" as="geometry" />
        </mxCell>
        <mxCell id="h0dk6aMBMe3RH_vuJK1O-12" value="夢境解析結果 DreamAnalysisResult " style="swimlane;fontStyle=2;align=center;verticalAlign=top;childLayout=stackLayout;horizontal=1;startSize=30;horizontalStack=0;resizeParent=1;resizeLast=0;collapsible=1;marginBottom=0;rounded=0;shadow=0;strokeWidth=1;fillColor=#E5CCFF;spacingTop=0;spacing=4;" vertex="1" parent="h0dk6aMBMe3RH_vuJK1O-13">
          <mxGeometry width="286" height="26" as="geometry">
            <mxRectangle x="230" y="140" width="160" height="26" as="alternateBounds" />
          </mxGeometry>
        </mxCell>
        <mxCell id="h0dk6aMBMe3RH_vuJK1O-20" value="新聞 News  " style="swimlane;fontStyle=2;align=center;verticalAlign=top;childLayout=stackLayout;horizontal=1;startSize=30;horizontalStack=0;resizeParent=1;resizeLast=0;collapsible=1;marginBottom=0;rounded=0;shadow=0;strokeWidth=1;fillColor=#E5CCFF;spacingTop=0;spacing=4;" vertex="1" parent="1">
          <mxGeometry x="1375.5" y="752" width="286" height="26" as="geometry">
            <mxRectangle x="230" y="140" width="160" height="26" as="alternateBounds" />
          </mxGeometry>
        </mxCell>
        <mxCell id="h0dk6aMBMe3RH_vuJK1O-22" value="" style="group;spacingTop=0;spacing=4;" connectable="0" vertex="1" parent="1">
          <mxGeometry x="746" y="315.5" width="286" height="183.5" as="geometry" />
        </mxCell>
        <mxCell id="UCx2YUdVqbYVu_U4UwC4-3" value="&lt;p style=&quot;margin:0px;margin-top:4px;text-align:center;&quot;&gt;&lt;span style=&quot;font-style: italic; text-wrap-mode: nowrap;&quot;&gt;夢境 Dream&amp;nbsp;&lt;/span&gt;&lt;/p&gt;&lt;hr size=&quot;1&quot; style=&quot;border-style:solid;&quot;&gt;&lt;p style=&quot;margin:0px;margin-left:4px;&quot;&gt;&lt;span style=&quot;background-color: transparent;&quot;&gt;+ dreamID: int&lt;/span&gt;&lt;/p&gt;&lt;p style=&quot;margin:0px;margin-left:4px;&quot;&gt;+ userID: int&lt;/p&gt;&lt;p style=&quot;margin:0px;margin-left:4px;&quot;&gt;+ content: longtext&lt;/p&gt;&lt;p style=&quot;margin:0px;margin-left:4px;&quot;&gt;+ createdAt: datetime&lt;/p&gt;&lt;p style=&quot;margin:0px;margin-left:4px;&quot;&gt;+ keywords: List&amp;lt;string&amp;gt;&lt;/p&gt;&lt;p style=&quot;margin:0px;margin-left:4px;&quot;&gt;+ analysis: DreamAnalysisResult&lt;/p&gt;&lt;hr size=&quot;1&quot; style=&quot;border-style:solid;&quot;&gt;&lt;p style=&quot;margin:0px;margin-left:4px;&quot;&gt;+ analyzeDream(): DreamAnalysisResult&lt;/p&gt;&lt;p style=&quot;margin:0px;margin-left:4px;&quot;&gt;+ getPsyDiagnosis(): List&amp;lt;PsyDiagnosis&amp;gt;&lt;/p&gt;" style="verticalAlign=top;align=left;overflow=fill;html=1;whiteSpace=wrap;spacingTop=0;spacing=4;" vertex="1" parent="h0dk6aMBMe3RH_vuJK1O-22">
          <mxGeometry y="3.5" width="286" height="180" as="geometry" />
        </mxCell>
        <mxCell id="h0dk6aMBMe3RH_vuJK1O-16" value="夢境 Dream " style="swimlane;fontStyle=2;align=center;verticalAlign=top;childLayout=stackLayout;horizontal=1;startSize=30;horizontalStack=0;resizeParent=1;resizeLast=0;collapsible=1;marginBottom=0;rounded=0;shadow=0;strokeWidth=1;fillColor=#E5CCFF;spacingTop=0;spacing=4;" vertex="1" parent="h0dk6aMBMe3RH_vuJK1O-22">
          <mxGeometry width="286" height="26" as="geometry">
            <mxRectangle x="230" y="140" width="160" height="26" as="alternateBounds" />
          </mxGeometry>
        </mxCell>
        <mxCell id="h0dk6aMBMe3RH_vuJK1O-23" value="" style="group;spacingTop=0;spacing=4;" connectable="0" vertex="1" parent="1">
          <mxGeometry x="1345" y="313" width="347" height="189.5" as="geometry" />
        </mxCell>
        <mxCell id="UCx2YUdVqbYVu_U4UwC4-5" value="&lt;p style=&quot;margin:0px;margin-top:4px;text-align:center;&quot;&gt;&lt;span style=&quot;font-style: italic; text-wrap-mode: nowrap; background-color: transparent; color: light-dark(rgb(0, 0, 0), rgb(255, 255, 255));&quot;&gt;使用者 User&lt;/span&gt;&lt;/p&gt;&lt;hr size=&quot;1&quot; style=&quot;border-style:solid;&quot;&gt;&lt;p style=&quot;margin:0px;margin-left:4px;&quot;&gt;&lt;span style=&quot;background-color: transparent;&quot;&gt;+ userID: int&lt;/span&gt;&lt;/p&gt;&lt;p style=&quot;margin:0px;margin-left:4px;&quot;&gt;+ username: string&lt;/p&gt;&lt;p style=&quot;margin:0px;margin-left:4px;&quot;&gt;+ password: string&lt;/p&gt;&lt;p style=&quot;margin:0px;margin-left:4px;&quot;&gt;+ email: string&lt;/p&gt;&lt;p style=&quot;margin:0px;margin-left:4px;&quot;&gt;+ createdAt: datetime&lt;/p&gt;&lt;hr size=&quot;1&quot; style=&quot;border-style:solid;&quot;&gt;&lt;p style=&quot;margin:0px;margin-left:4px;&quot;&gt;&lt;span style=&quot;background-color: transparent;&quot;&gt;+ postDream(content: string): Dream&lt;/span&gt;&lt;/p&gt;&lt;p style=&quot;margin:0px;margin-left:4px;&quot;&gt;+ createPost(title: string, content: string): Post&lt;/p&gt;&lt;p style=&quot;margin:0px;margin-left:4px;&quot;&gt;+ commentOnPost(postID: int, content: string): Comment&lt;/p&gt;" style="verticalAlign=top;align=left;overflow=fill;html=1;whiteSpace=wrap;spacingTop=0;spacing=4;" vertex="1" parent="h0dk6aMBMe3RH_vuJK1O-23">
          <mxGeometry y="2.5" width="347" height="187" as="geometry" />
        </mxCell>
        <mxCell id="h0dk6aMBMe3RH_vuJK1O-17" value="使用者 User" style="swimlane;fontStyle=2;align=center;verticalAlign=top;childLayout=stackLayout;horizontal=1;startSize=30;horizontalStack=0;resizeParent=1;resizeLast=0;collapsible=1;marginBottom=0;rounded=0;shadow=0;strokeWidth=1;fillColor=#E5CCFF;spacingTop=0;spacing=4;" vertex="1" parent="h0dk6aMBMe3RH_vuJK1O-23">
          <mxGeometry width="346" height="26" as="geometry">
            <mxRectangle x="230" y="140" width="160" height="26" as="alternateBounds" />
          </mxGeometry>
        </mxCell>
        <mxCell id="h0dk6aMBMe3RH_vuJK1O-24" value="" style="group;spacingTop=0;spacing=4;" connectable="0" vertex="1" parent="1">
          <mxGeometry x="1958" y="307" width="286" height="202" as="geometry" />
        </mxCell>
        <mxCell id="UCx2YUdVqbYVu_U4UwC4-7" value="&lt;p style=&quot;margin:0px;margin-top:4px;text-align:center;&quot;&gt;&lt;span style=&quot;font-style: italic; text-wrap-mode: nowrap;&quot;&gt;貼文 Post&amp;nbsp;&amp;nbsp;&lt;/span&gt;&lt;/p&gt;&lt;hr size=&quot;1&quot; style=&quot;border-style:solid;&quot;&gt;&lt;p style=&quot;margin:0px;margin-left:4px;&quot;&gt;&lt;span style=&quot;background-color: transparent;&quot;&gt;+ postID: int&lt;/span&gt;&lt;/p&gt;&lt;p style=&quot;margin:0px;margin-left:4px;&quot;&gt;+ userID: int&lt;/p&gt;&lt;p style=&quot;margin:0px;margin-left:4px;&quot;&gt;+ title: string&lt;/p&gt;&lt;p style=&quot;margin:0px;margin-left:4px;&quot;&gt;+ content: longtext&lt;/p&gt;&lt;p style=&quot;margin:0px;margin-left:4px;&quot;&gt;+ tags: List&amp;lt;string&amp;gt;&lt;/p&gt;&lt;p style=&quot;margin:0px;margin-left:4px;&quot;&gt;+ createdAt: datetime&lt;/p&gt;&lt;p style=&quot;margin:0px;margin-left:4px;&quot;&gt;+ updated_at: datetime&lt;/p&gt;&lt;hr size=&quot;1&quot; style=&quot;border-style:solid;&quot;&gt;&lt;p style=&quot;margin:0px;margin-left:4px;&quot;&gt;+&lt;span style=&quot;background-color: transparent;&quot;&gt;&amp;nbsp;editPost(newContent: string): void&lt;/span&gt;&lt;/p&gt;&lt;p style=&quot;margin:0px;margin-left:4px;&quot;&gt;+ addComment(comment: Comment): void&lt;/p&gt;&lt;p style=&quot;margin:0px;margin-left:4px;&quot;&gt;+ getComments(): List&amp;lt;Comment&amp;gt;&lt;/p&gt;" style="verticalAlign=top;align=left;overflow=fill;html=1;whiteSpace=wrap;spacingTop=0;spacing=4;" vertex="1" parent="h0dk6aMBMe3RH_vuJK1O-24">
          <mxGeometry y="2" width="286" height="200" as="geometry" />
        </mxCell>
        <mxCell id="h0dk6aMBMe3RH_vuJK1O-1" value="貼文 Post  " style="swimlane;fontStyle=2;align=center;verticalAlign=top;childLayout=stackLayout;horizontal=1;startSize=30;horizontalStack=0;resizeParent=1;resizeLast=0;collapsible=1;marginBottom=0;rounded=0;shadow=0;strokeWidth=1;fillColor=#E5CCFF;spacingTop=0;spacing=4;" vertex="1" parent="h0dk6aMBMe3RH_vuJK1O-24">
          <mxGeometry width="286" height="26" as="geometry">
            <mxRectangle x="230" y="140" width="160" height="26" as="alternateBounds" />
          </mxGeometry>
        </mxCell>
        <mxCell id="h0dk6aMBMe3RH_vuJK1O-25" value="" style="group;spacingTop=0;spacing=4;" connectable="0" vertex="1" parent="1">
          <mxGeometry x="209" y="723" width="286" height="187.5" as="geometry" />
        </mxCell>
        <mxCell id="UCx2YUdVqbYVu_U4UwC4-2" value="&lt;p style=&quot;margin:0px;margin-top:4px;text-align:center;&quot;&gt;&lt;span style=&quot;font-style: italic; text-wrap-mode: nowrap;&quot;&gt;警示窗&amp;nbsp;AlertWindow&amp;nbsp;&lt;/span&gt;&lt;/p&gt;&lt;hr size=&quot;1&quot; style=&quot;border-style:solid;&quot;&gt;&lt;p style=&quot;margin:0px;margin-left:4px;&quot;&gt;&lt;span style=&quot;background-color: transparent; color: light-dark(rgb(0, 0, 0), rgb(255, 255, 255));&quot;&gt;+ alertID: int&lt;/span&gt;&lt;/p&gt;&lt;p style=&quot;margin:0px;margin-left:4px;&quot;&gt;+ userID: int&lt;/p&gt;&lt;p style=&quot;margin:0px;margin-left:4px;&quot;&gt;+ triggered_by: string&lt;/p&gt;&lt;p style=&quot;margin:0px;margin-left:4px;&quot;&gt;+ message: longtext&lt;/p&gt;&lt;p style=&quot;margin:0px;margin-left:4px;&quot;&gt;+ created_at: datetime&lt;/p&gt;&lt;p style=&quot;margin:0px;margin-left:4px;&quot;&gt;+ isRead: bool&lt;/p&gt;&lt;hr size=&quot;1&quot; style=&quot;border-style:solid;&quot;&gt;&lt;p style=&quot;margin:0px;margin-left:4px;&quot;&gt;&lt;span style=&quot;background-color: transparent; color: light-dark(rgb(0, 0, 0), rgb(255, 255, 255));&quot;&gt;+ markAsRead(): void&lt;/span&gt;&lt;/p&gt;&lt;p style=&quot;margin:0px;margin-left:4px;&quot;&gt;+ sendNotification(): void&lt;/p&gt;" style="verticalAlign=top;align=left;overflow=fill;html=1;whiteSpace=wrap;spacingTop=0;spacing=4;" vertex="1" parent="h0dk6aMBMe3RH_vuJK1O-25">
          <mxGeometry y="2.5" width="286" height="185" as="geometry" />
        </mxCell>
        <mxCell id="h0dk6aMBMe3RH_vuJK1O-21" value="警示窗 AlertWindow " style="swimlane;fontStyle=2;align=center;verticalAlign=top;childLayout=stackLayout;horizontal=1;startSize=30;horizontalStack=0;resizeParent=1;resizeLast=0;collapsible=1;marginBottom=0;rounded=0;shadow=0;strokeWidth=1;fillColor=#E5CCFF;spacingTop=0;spacing=4;" vertex="1" parent="h0dk6aMBMe3RH_vuJK1O-25">
          <mxGeometry width="286" height="26" as="geometry">
            <mxRectangle x="230" y="140" width="160" height="26" as="alternateBounds" />
          </mxGeometry>
        </mxCell>
        <mxCell id="h0dk6aMBMe3RH_vuJK1O-27" value="" style="group;spacingTop=0;spacing=4;" connectable="0" vertex="1" parent="1">
          <mxGeometry x="746" y="716" width="286" height="201" as="geometry" />
        </mxCell>
        <mxCell id="UCx2YUdVqbYVu_U4UwC4-4" value="&lt;p style=&quot;margin:0px;margin-top:4px;text-align:center;&quot;&gt;&lt;span style=&quot;font-style: italic; text-wrap-mode: nowrap; background-color: transparent; color: light-dark(rgb(0, 0, 0), rgb(255, 255, 255));&quot;&gt;心理診斷建議 PsyDiagnosis&lt;/span&gt;&lt;/p&gt;&lt;hr size=&quot;1&quot; style=&quot;border-style:solid;&quot;&gt;&lt;p style=&quot;margin:0px;margin-left:4px;&quot;&gt;&lt;span style=&quot;background-color: transparent; color: light-dark(rgb(0, 0, 0), rgb(255, 255, 255));&quot;&gt;+ diagnosisID: int&lt;/span&gt;&lt;/p&gt;&lt;p style=&quot;margin:0px;margin-left:4px;&quot;&gt;+ dreamID: int&lt;/p&gt;&lt;p style=&quot;margin:0px;margin-left:4px;&quot;&gt;+ content: longtext&lt;/p&gt;&lt;p style=&quot;margin:0px;margin-left:4px;&quot;&gt;+ mainEmotion: string&lt;/p&gt;&lt;p style=&quot;margin:0px;margin-left:4px;&quot;&gt;+ emotionScore: float&lt;/p&gt;&lt;p style=&quot;margin:0px;margin-left:4px;&quot;&gt;+ suggestion: longtext&lt;/p&gt;&lt;p style=&quot;margin:0px;margin-left:4px;&quot;&gt;+ alert: AlertWindow&lt;/p&gt;&lt;hr size=&quot;1&quot; style=&quot;border-style:solid;&quot;&gt;&lt;p style=&quot;margin:0px;margin-left:4px;&quot;&gt;&lt;span style=&quot;background-color: transparent;&quot;&gt;+ analyze(): void&lt;/span&gt;&lt;/p&gt;&lt;p style=&quot;margin:0px;margin-left:4px;&quot;&gt;+ triggerAlert(): AlertWindow&lt;/p&gt;" style="verticalAlign=top;align=left;overflow=fill;html=1;whiteSpace=wrap;spacingTop=0;spacing=4;" vertex="1" parent="h0dk6aMBMe3RH_vuJK1O-27">
          <mxGeometry y="3" width="286" height="198" as="geometry" />
        </mxCell>
        <mxCell id="h0dk6aMBMe3RH_vuJK1O-19" value="心理診斷建議 PsyDiagnosis&#xa;" style="swimlane;fontStyle=2;align=center;verticalAlign=top;childLayout=stackLayout;horizontal=1;startSize=30;horizontalStack=0;resizeParent=1;resizeLast=0;collapsible=1;marginBottom=0;rounded=0;shadow=0;strokeWidth=1;fillColor=#E5CCFF;spacingTop=0;spacing=4;" vertex="1" parent="h0dk6aMBMe3RH_vuJK1O-27">
          <mxGeometry width="286" height="26" as="geometry">
            <mxRectangle x="230" y="140" width="160" height="26" as="alternateBounds" />
          </mxGeometry>
        </mxCell>
        <mxCell id="h0dk6aMBMe3RH_vuJK1O-30" value="" style="group;spacingTop=0;spacing=4;" connectable="0" vertex="1" parent="1">
          <mxGeometry x="1958" y="760.5" width="286" height="150" as="geometry" />
        </mxCell>
        <mxCell id="UCx2YUdVqbYVu_U4UwC4-8" value="&lt;p style=&quot;margin:0px;margin-top:4px;text-align:center;&quot;&gt;&lt;span style=&quot;font-style: italic; text-wrap-mode: nowrap; background-color: transparent; color: light-dark(rgb(0, 0, 0), rgb(255, 255, 255));&quot;&gt;留言 Comment&amp;nbsp; &amp;nbsp;&lt;/span&gt;&lt;/p&gt;&lt;hr size=&quot;1&quot; style=&quot;border-style:solid;&quot;&gt;&lt;p style=&quot;margin:0px;margin-left:4px;&quot;&gt;&lt;span style=&quot;background-color: transparent;&quot;&gt;+ commentID: int&lt;/span&gt;&lt;/p&gt;&lt;p style=&quot;margin:0px;margin-left:4px;&quot;&gt;+ userID: int&lt;/p&gt;&lt;p style=&quot;margin:0px;margin-left:4px;&quot;&gt;+ postID: int&lt;/p&gt;&lt;p style=&quot;margin:0px;margin-left:4px;&quot;&gt;+ content: longtext&lt;/p&gt;&lt;p style=&quot;margin:0px;margin-left:4px;&quot;&gt;+ createdAt: datetime&lt;/p&gt;&lt;hr size=&quot;1&quot; style=&quot;border-style:solid;&quot;&gt;&lt;p style=&quot;margin:0px;margin-left:4px;&quot;&gt;+ editComment(newContent: string): void&lt;/p&gt;" style="verticalAlign=top;align=left;overflow=fill;html=1;whiteSpace=wrap;spacingTop=0;spacing=4;" vertex="1" parent="h0dk6aMBMe3RH_vuJK1O-30">
          <mxGeometry width="286" height="150" as="geometry" />
        </mxCell>
        <mxCell id="h0dk6aMBMe3RH_vuJK1O-28" value="留言 Comment   &#xa;" style="swimlane;fontStyle=2;align=center;verticalAlign=top;childLayout=stackLayout;horizontal=1;startSize=30;horizontalStack=0;resizeParent=1;resizeLast=0;collapsible=1;marginBottom=0;rounded=0;shadow=0;strokeWidth=1;fillColor=#E5CCFF;spacingTop=0;spacing=4;" vertex="1" parent="h0dk6aMBMe3RH_vuJK1O-30">
          <mxGeometry width="286" height="26" as="geometry">
            <mxRectangle x="230" y="140" width="160" height="26" as="alternateBounds" />
          </mxGeometry>
        </mxCell>
      </root>
    </mxGraphModel>
  </diagram>
</mxfile>
